#!OML:ASF X:\für Bonn\!DataBase\2005_08_11_Bastian_Final\c3d\Bastian.ASF
:FULLY-SPECIFIED
:DEGREES
131
root -0.19914 15.0685 6.79628 174.365 -10.2155 -178.564
lowerback 17.5707 -2.75467 -1.57742
upperback 4.5101 -4.55372 -0.32347
thorax -4.89354 -2.48699 1.54002
lowerneck -12.941 -8.0316 -3.1867
upperneck -5.61147 -9.35222 11.8808
head 1.25168 -3.97482 3.97404
rclavicle -3.19049e-014 2.78299e-015
rhumerus 69.0254 18.1388 -7.90731
rradius 41.6172
rwrist -46.0301
rhand -44.1509 -2.56435
rfingers 7.12502
rthumb -16.9664 -31.8433
lclavicle -3.19049e-014 2.78299e-015
lhumerus 62.6737 -17.7289 -1.11889
lradius 34.7106
lwrist 2.47319
lhand -43.1788 9.24254
lfingers 7.12502
lthumb -16.0305 38.5994
rfemur -28.6144 -7.3735 24.9124
rtibia 75.9947
rfoot -36.0217 -13.6562
rtoes -1.96168
lfemur -29.2467 -2.05937 -19.0723
ltibia 73.7978
lfoot -30.8006 -11.6932
ltoes -2.65867
132
root -0.202585 15.2679 6.79002 174.772 -10.2815 -178.614
lowerback 17.0916 -2.79301 -1.63471
upperback 4.42811 -4.57902 -0.319954
thorax -4.72009 -2.4905 1.55152
lowerneck -13.0681 -7.99835 -3.15026
upperneck -5.39838 -9.34223 11.8661
head 1.34112 -3.96512 3.95676
rclavicle 2.5842e-014 1.19271e-014
rhumerus 68.9259 18.5383 -8.28335
rradius 41.6531
rwrist -45.7463
rhand -44.4089 -2.33446
rfingers 7.12502
rthumb -17.2148 -31.5919
lclavicle 2.5842e-014 1.19271e-014
lhumerus 62.5381 -17.9974 -0.661034
lradius 34.8497
lwrist 2.28209
lhand -43.1692 8.83264
lfingers 7.12502
lthumb -16.0213 38.1902
rfemur -27.7815 -7.26747 24.7797
rtibia 73.6022
rfoot -35.0214 -13.38
rtoes -1.72212
lfemur -28.2961 -1.96779 -19.1053
ltibia 71.146
lfoot -29.6698 -11.575
ltoes -3.19846
133
root -0.205696 15.4613 6.78278 175.135 -10.3459 -178.656
lowerback 16.6656 -2.82794 -1.69823
upperback 4.32846 -4.60067 -0.304237
thorax -4.59144 -2.49112 1.58264
lowerneck -13.0919 -7.97007 -3.18055
upperneck -5.20706 -9.33394 11.8845
head 1.4119 -3.96063 3.96682
rclavicle 6.60959e-014 1.19271e-014
rhumerus 68.7868 18.9556 -8.83623
rradius 41.623
rwrist -45.2316
rhand -44.5437 -2.17165
rfingers 7.12502
rthumb -17.3445 -31.4177
lclavicle 6.60959e-014 1.19271e-014
lhumerus 62.3858 -18.3062 -0.0265288
lradius 34.8858
lwrist 1.89516
lhand -43.1366 8.39145
lfingers 7.12502
lthumb -15.9899 37.7515
rfemur -26.9138 -7.18904 24.6609
rtibia 71.2451
rfoot -34.0271 -13.1165
rtoes -1.53691
lfemur -27.3029 -1.87483 -19.1233
ltibia 68.5104
lfoot -28.5169 -11.4985
ltoes -3.63177
134
root -0.208398 15.6468 6.77376 175.518 -10.4088 -178.7
lowerback 16.1848 -2.86198 -1.77724
upperback 4.24107 -4.62264 -0.284309
thorax -4.41812 -2.49315 1.62228
lowerneck -13.1322 -7.93874 -3.1738
upperneck -5.01762 -9.32526 11.8647
head 1.48009 -3.9567 3.95609
rclavicle 4.77083e-015 1.31198e-014
rhumerus 68.6525 19.315 -9.5207
rradius 41.5093
rwrist -44.5648
rhand -44.5893 -2.02736
rfingers 7.12502
rthumb -17.3885 -31.2696
lclavicle 4.77083e-015 1.31198e-014
lhumerus 62.215 -18.6009 0.520825
lradius 34.9447
lwrist 1.51745
lhand -43.1574 8.04343
lfingers 7.12502
lthumb -16.01 37.4019
rfemur -26.0864 -7.1965 24.5461
rtibia 68.9307
rfoot -33.0291 -12.8646
rtoes -1.48115
lfemur -26.3374 -1.74607 -19.1419
ltibia 65.8983
lfoot -27.3166 -11.4315
ltoes -3.9991
135
root -0.211202 15.8246 6.76443 175.853 -10.4656 -178.762
lowerback 15.7651 -2.8984 -1.88221
upperback 4.1537 -4.65506 -0.264655
thorax -4.2744 -2.50071 1.68192
lowerneck -13.1108 -7.89822 -3.20059
upperneck -4.8579 -9.29807 11.8742
head 1.5302 -3.94563 3.9655
rclavicle -5.73494e-014 1.35174e-014
rhumerus 68.5271 19.6594 -10.1635
rradius 41.4103
rwrist -43.8371
rhand -44.6019 -1.97663
rfingers 7.12502
rthumb -17.4005 -31.2178
lclavicle -5.73494e-014 1.35174e-014
lhumerus 62.0268 -18.9038 1.0949
lradius 34.9356
lwrist 1.03488
lhand -43.2151 7.75559
lfingers 7.12502
lthumb -16.0655 37.1096
rfemur -25.2433 -7.34945 24.4032
rtibia 66.6762
rfoot -32.0245 -12.5893
rtoes -1.66531
lfemur -25.3232 -1.60165 -19.1818
ltibia 63.3116
lfoot -26.0979 -11.3685
ltoes -4.5256
136
root -0.213955 15.9946 6.75393 176.173 -10.503 -178.778
lowerback 15.3239 -2.92303 -1.92587
upperback 4.07882 -4.66264 -0.247498
thorax -4.11108 -2.49755 1.69782
lowerneck -13.1012 -7.87239 -3.21171
upperneck -4.68824 -9.29332 11.8786
head 1.58619 -3.94507 3.9681
rclavicle -3.73715e-014 9.14409e-015
rhumerus 68.3754 19.941 -10.7023
rradius 41.3419
rwrist -43.1735
rhand -44.6145 -2.05585
rfingers 7.12502
rthumb -17.4127 -31.2959
lclavicle -3.73715e-014 9.14409e-015
lhumerus 61.8939 -19.2127 1.57926
lradius 34.932
lwrist 0.52454
lhand -43.3723 7.59759
lfingers 7.12502
lthumb -16.2169 36.9393
rfemur -24.4086 -7.5414 24.3141
rtibia 64.4726
rfoot -31.0531 -12.2622
rtoes -1.76669
lfemur -24.319 -1.44088 -19.1686
ltibia 60.7641
lfoot -24.8607 -11.3465
ltoes -4.74855
137
root -0.216611 16.1554 6.7428 176.457 -10.5416 -178.834
lowerback 14.9082 -2.95147 -2.01408
upperback 4.02137 -4.68638 -0.245251
thorax -3.93974 -2.50397 1.7267
lowerneck -13.067 -7.83523 -3.23174
upperneck -4.53849 -9.26945 11.9011
head 1.63149 -3.9354 3.98119
rclavicle 2.78299e-015 2.50469e-014
rhumerus 68.2537 20.1696 -11.1803
rradius 41.2931
rwrist -42.5842
rhand -44.5974 -2.09365
rfingers 7.12502
rthumb -17.3963 -31.3352
lclavicle 2.78299e-015 2.50469e-014
lhumerus 61.7695 -19.516 1.87627
lradius 34.9455
lwrist 0.117109
lhand -43.5497 7.52191
lfingers 7.12502
lthumb -16.3877 36.8496
rfemur -23.5512 -7.81595 24.1756
rtibia 62.3313
rfoot -30.1143 -11.8812
rtoes -2.05592
lfemur -23.2773 -1.29382 -19.2043
ltibia 58.2499
lfoot -23.6849 -11.2946
ltoes -5.10023
138
root -0.219366 16.3097 6.73231 176.693 -10.5855 -178.84
lowerback 14.5577 -2.98124 -2.05696
upperback 3.95162 -4.70529 -0.217235
thorax -3.81747 -2.50735 1.76121
lowerneck -12.9857 -7.81029 -3.30784
upperneck -4.40887 -9.25497 11.9471
head 1.66755 -3.93199 4.01393
rclavicle 6.75868e-014 3.57812e-015
rhumerus 68.1907 20.3763 -11.4095
rradius 41.2709
rwrist -42.1947
rhand -44.6338 -2.10574
rfingers 7.12502
rthumb -17.4313 -31.3442
lclavicle 6.75868e-014 3.57812e-015
lhumerus 61.6586 -19.8539 2.13181
lradius 34.9473
lwrist -0.330291
lhand -43.8132 7.58721
lfingers 7.12502
lthumb -16.6413 36.8938
rfemur -22.6747 -8.08128 24.0965
rtibia 60.2456
rfoot -29.202 -11.5165
rtoes -2.22638
lfemur -22.2265 -1.13284 -19.1823
ltibia 55.787
lfoot -22.5579 -11.2453
ltoes -5.55579
139
root -0.221921 16.4553 6.71969 176.911 -10.5963 -178.865
lowerback 14.1765 -2.99901 -2.1239
upperback 3.90832 -4.71413 -0.199667
thorax -3.64987 -2.50809 1.79303
lowerneck -12.9481 -7.78185 -3.30828
upperneck -4.2732 -9.24422 11.9185
head 1.7038 -3.93133 4.00442
rclavicle 4.28381e-014 1.35174e-014
rhumerus 68.1091 20.5059 -11.6398
rradius 41.2821
rwrist -41.8297
rhand -44.6024 -2.13386
rfingers 7.12502
rthumb -17.401 -31.375
lclavicle 4.28381e-014 1.35174e-014
lhumerus 61.5894 -20.1525 2.18181
lradius 34.9809
lwrist -0.70843
lhand -44.0869 7.78575
lfingers 7.12502
lthumb -16.9049 37.07
rfemur -21.7878 -8.26448 23.999
rtibia 58.2268
rfoot -28.3587 -11.1562
rtoes -2.38852
lfemur -21.1529 -0.982884 -19.1856
ltibia 53.3568
lfoot -21.4663 -11.1768
ltoes -6.05237
